<?xml version="1.0" encoding="UTF-8"?>
<svg xmlns="http://www.w3.org/2000/svg" width="256" height="96" viewBox="0 0 256 96" role="img" aria-labelledby="title desc">
  <title id="title">404cast logo</title>
  <desc id="desc">Stylized cloud with sun, gradient fill</desc>
  <defs>
    <linearGradient id="g1" x1="0" x2="1" y1="0" y2="1">
      <stop offset="0%" stop-color="#56CCF2"/>
      <stop offset="100%" stop-color="#2F80ED"/>
    </linearGradient>
    <filter id="s" x="-20%" y="-20%" width="140%" height="140%">
      <feDropShadow dx="0" dy="6" stdDeviation="10" flood-color="#000" flood-opacity="0.12"/>
    </filter>
  </defs>

  <!-- cloud group -->
  <g transform="translate(16,8)" filter="url(#s)">
    <path d="M90 48H34c-12 0-22-10-22-22 0-11 9-20 20-20 2 0 4 0 6 1 5-8 14-13 24-13 12 0 22 7 28 17 3-1 6-1 9-1 16 0 28 12 28 28 0 15-12 27-27 27z"
          fill="url(#g1)"/>
    <!-- small white highlight -->
    <path d="M48 32c-6 0-10-4-10-9s4-9 10-9c3 0 6 1 8 3 1 1 1 3 0 4-2 4-6 11-8 11z" fill="rgba(255,255,255,0.35)"/>
  </g>

  <!-- sun behind cloud -->
  <g transform="translate(152,8)">
    <circle cx="-40" cy="6" r="18" fill="#FFD166" opacity="0.95" />
    <g stroke="#FFD166" stroke-width="2" stroke-linecap="round" opacity="0.9">
      <line x1="-40" y1="-32" x2="-40" y2="-8"/>
      <line x1="-40" y1="28" x2="-40" y2="52"/>
      <line x1="-64" y1="6" x2="-40" y2="6"/>
      <line x1="-16" y1="6" x2="8" y2="6"/>
      <line x1="-56" y1="-16" x2="-44" y2="-4"/>
      <line x1="-24" y1="18" x2="-12" y2="6"/>
      <line x1="-56" y1="18" x2="-44" y2="6"/>
      <line x1="-24" y1="-16" x2="-12" y2="-4"/>
    </g>
  </g>

  <!-- accessible text as part of image fallback (hidden visually) -->
  <style>
    .visually-hidden{position:absolute;width:1px;height:1px;padding:0;margin:-1px;overflow:hidden;clip:rect(0 0 0 0);border:0}
  </style>
</svg>
